<svg xmlns="http://www.w3.org/2000/svg" viewBox="0 0 533.5 544.3">
  <path fill="#4285F4" d="M533.5 278.4c0-18.5-1.5-36.6-4.3-54.1H272v102.4h147.1c-6.4 34.9-25.9 64.4-55.3 84.3v69h89.4c52.4-48.2 82.3-119.4 82.3-201.6z"/>
  <path fill="#34A853" d="M272 544.3c73.6 0 135.5-24.4 180.6-66.3l-89.4-69c-25 16.9-56.9 27-91.2 27-70 0-129.4-47.3-150.6-110.9H31.6v69.6C76.5 486 167.9 544.3 272 544.3z"/>
  <path fill="#FBBC05" d="M121.4 326.8c-10.4-31-10.4-64.2 0-95.2V162H31.6c-37.8 74.9-37.8 163.6 0 238.5l89.8-74z"/>
  <path fill="#EA4335" d="M272 107.8c39.9 0 75.8 13.7 104 40.7l78-78C402.8 24.7 343.6 0 272 0 167.9 0 76.5 58.3 31.6 146l89.8 74C142.6 155.1 202 107.8 272 107.8z"/>
</svg>